# xmcd
#
# Track frame offsets: 
#        150
#        23575
#        41888
#        62493
#        83013
#        103348
#        123580
#        139978
#        158895
#        177188
#
# Disc length: 2680 seconds
#
# Revision: 2
# Processed by: cddbd v1.5.2PL0 Copyright (c) Steve Scherf et al.
# Submitted via: ExactAudioCopy v0.99pb5
#
DISCID=840a760a
DTITLE=Homi and Jarvis - Friend Of A Friend
DYEAR=1983
DGENRE=Jazz/Fusion
TTITLE0=I'm In Love Again
TTITLE1=Friend Of A Friend
TTITLE2=I Told You So
TTITLE3=You Got Me Fallin'
TTITLE4=Believe In Yourself
TTITLE5=If You See Him
TTITLE6=It Didn't Work Out That Way
TTITLE7=Love's Taking Over
TTITLE8=Run That By Me
TTITLE9=Some Hearts
EXTD=
EXTT0=
EXTT1=
EXTT2=
EXTT3=
EXTT4=
EXTT5=
EXTT6=
EXTT7=
EXTT8=
EXTT9=
PLAYORDER=
